<?xml version="1.0" encoding="utf-8"?>
<!-- Generator: Adobe Illustrator 22.0.1, SVG Export Plug-In . SVG Version: 6.00 Build 0)  -->
<svg version="1.1" id="Layer_1" xmlns="http://www.w3.org/2000/svg" xmlns:xlink="http://www.w3.org/1999/xlink" x="0px" y="0px"
	 viewBox="0 0 278.1 240.4" style="enable-background:new 0 0 278.1 240.4;" xml:space="preserve">
<style type="text/css">
	.st0{fill:#E3B94B;}
	.st1{fill:#FFFFFF;}
	.st2{fill:#8ABB66;}
	.st3{fill:#C97234;}
</style>
<g id="XMLID_459_">
	<g>
		<g id="XMLID_56_">
			<path id="XMLID_57_" class="st2" d="M131.7,155.9c-1.1,0-2.2-0.4-3.1-1.3l-33.5-33.5c-1.7-1.7-1.7-4.5,0-6.2
				c1.7-1.7,4.5-1.7,6.2,0l33.5,33.5c1.7,1.7,1.7,4.5,0,6.2C133.9,155.4,132.8,155.9,131.7,155.9z"/>
		</g>
		<g id="XMLID_54_">
			<path id="XMLID_55_" class="st2" d="M131.7,155.9c-1.1,0-2.2-0.4-3.1-1.3c-1.7-1.7-1.7-4.5,0-6.2l86.1-86.1
				c1.7-1.7,4.5-1.7,6.2,0c1.7,1.7,1.7,4.5,0,6.2l-86.1,86.1C133.9,155.4,132.8,155.9,131.7,155.9z"/>
		</g>
		<g id="XMLID_52_">
			<path id="XMLID_53_" class="st2" d="M226,95.2c1.9,7.3,2.9,14.9,2.9,22.8c0,49.8-40.5,90.3-90.3,90.3
				c-49.8,0-90.3-40.5-90.3-90.3s40.5-90.3,90.3-90.3c23.9,0,45.6,9.3,61.8,24.5l6.2-6.2C188.9,29.3,165,19,138.7,19
				c-54.6,0-99,44.4-99,99s44.4,99,99,99s99-44.4,99-99c0-10.4-1.6-20.4-4.6-29.9L226,95.2z"/>
		</g>
	</g>
</g>
</svg>
