<?xml version="1.0" encoding="utf-8"?>
<!-- Generator: Adobe Illustrator 22.0.1, SVG Export Plug-In . SVG Version: 6.00 Build 0)  -->
<svg version="1.1" id="Layer_1" xmlns="http://www.w3.org/2000/svg" xmlns:xlink="http://www.w3.org/1999/xlink" x="0px" y="0px"
	 viewBox="0 0 278.1 240.4" style="enable-background:new 0 0 278.1 240.4;" xml:space="preserve">
<style type="text/css">
	.st0{fill:#E3B94B;}
	.st1{fill:#FFFFFF;}
	.st2{fill:#8ABB66;}
	.st3{fill:#C97234;}
</style>
<path class="st0" d="M254.1,78.4H23c-3,0-5.5-2.5-5.5-5.5v-7.2c0-3,2.5-5.5,5.5-5.5h231c3,0,5.5,2.5,5.5,5.5v7.2
	C259.6,76,257.1,78.4,254.1,78.4z"/>
<path class="st0" d="M220.2,110.6H56.9c-3,0-5.5-2.5-5.5-5.5v-7.2c0-3,2.5-5.5,5.5-5.5h163.3c3,0,5.5,2.5,5.5,5.5v7.2
	C225.7,108.2,223.2,110.6,220.2,110.6z"/>
<path class="st0" d="M187.2,142.8H89.1c-3,0-5.5-2.5-5.5-5.5v-7.2c0-3,2.5-5.5,5.5-5.5h98.1c3,0,5.5,2.5,5.5,5.5v7.2
	C192.7,140.4,190.2,142.8,187.2,142.8z"/>
<path class="st0" d="M155,180.8h-32.8c-3,0-5.5-2.5-5.5-5.5v-7.2c0-3,2.5-5.5,5.5-5.5H155c3,0,5.5,2.5,5.5,5.5v7.2
	C160.5,178.4,158,180.8,155,180.8z"/>
</svg>
