<?xml version="1.0" encoding="utf-8"?>
<!-- Generator: Adobe Illustrator 22.0.1, SVG Export Plug-In . SVG Version: 6.00 Build 0)  -->
<svg version="1.1" id="Layer_1" xmlns="http://www.w3.org/2000/svg" xmlns:xlink="http://www.w3.org/1999/xlink" x="0px" y="0px"
	 viewBox="0 0 278.1 240.4" style="enable-background:new 0 0 278.1 240.4;" xml:space="preserve">
<style type="text/css">
	.st0{fill:#E3B94B;}
	.st1{fill:#FFFFFF;}
	.st2{fill:#8ABB66;}
	.st3{fill:#C97234;}
</style>
<path id="comment_1_" class="st1" d="M81.5,233.3v-55.2h-15c-19.9,0-36.1-16.1-36.1-35.9l0.1-99.6c0-19.8,16.2-35.9,36.1-35.9h162.2
	c23.9,0,27.2,13.9,27.2,29l-0.1,106.6c0,19.8-16.2,35.9-36.1,35.9h-73.2L81.5,233.3z M66.6,25.4c-9.5,0-17.2,7.7-17.2,17.2
	l-0.1,99.6c0,9.5,7.7,17.2,17.2,17.2h33.9v33.3l39.4-33.3h80.1c9.5,0,17.2-7.7,17.2-17.2l0.1-106.6c0-7.7-1-9-1.2-9.2
	c0,0-1.2-1-7.2-1H66.6z"/>
</svg>
