<?xml version="1.0" encoding="utf-8"?>
<!-- Generator: Adobe Illustrator 22.0.1, SVG Export Plug-In . SVG Version: 6.00 Build 0)  -->
<svg version="1.1" id="Layer_1" xmlns="http://www.w3.org/2000/svg" xmlns:xlink="http://www.w3.org/1999/xlink" x="0px" y="0px"
	 viewBox="0 0 278.1 240.4" style="enable-background:new 0 0 278.1 240.4;" xml:space="preserve">
<style type="text/css">
	.st0{fill:#E3B94B;}
	.st1{fill:#FFFFFF;}
	.st2{fill:#8ABB66;}
	.st3{fill:#C97234;}
</style>
<path id="video_1_" class="st1" d="M31.5,18.7v152.1c0,4.8,3.9,8.7,8.7,8.7h200.2c4.8,0,8.7-3.9,8.7-8.7V18.7c0-4.8-3.9-8.7-8.7-8.7
	H40.2C35.4,10,31.5,13.9,31.5,18.7z M180.5,104.4l-60.3,32.4c-5.8,3.1-12.8-1.1-12.8-7.7V64.3c0-6.6,7-10.8,12.8-7.7l60.3,32.4
	C186.6,92.3,186.6,101.1,180.5,104.4z M140.1,210.3c0,4.6,1.1,9,2.9,12.9H40.5c-5.9,0-10.7-4.8-10.7-10.7c0-3,1.2-5.6,3.1-7.6
	c1.9-1.9,4.6-3.1,7.6-3.1h100.9C140.5,204.5,140.1,207.4,140.1,210.3z M247.3,212.5c0,2.9-1.2,5.6-3.1,7.6c-1.9,1.9-4.6,3.1-7.6,3.1
	H197c1.9-3.9,2.9-8.3,2.9-12.9c0-3-0.4-5.9-1.3-8.6h37.9C242.5,201.8,247.3,206.6,247.3,212.5z M190.4,210.3c0,3.1-0.7,6.1-2,8.8
	c-1,2.1-2.4,4-4,5.6c-3.7,3.7-8.8,6-14.4,6c-5.6,0-10.7-2.3-14.4-6c-1.6-1.6-3-3.5-4-5.6c-1.3-2.7-2-5.6-2-8.8c0-2,0.3-4,0.9-5.8
	c1-3.3,2.8-6.2,5.1-8.6c3.7-3.7,8.8-6,14.4-6c9.2,0,17,6.2,19.5,14.5C190.1,206.3,190.4,208.3,190.4,210.3z"/>
</svg>
