<?xml version="1.0" encoding="utf-8"?>
<!-- Generator: Adobe Illustrator 22.0.1, SVG Export Plug-In . SVG Version: 6.00 Build 0)  -->
<svg version="1.1" id="Layer_1" xmlns="http://www.w3.org/2000/svg" xmlns:xlink="http://www.w3.org/1999/xlink" x="0px" y="0px"
	 viewBox="0 0 278.1 240.4" style="enable-background:new 0 0 278.1 240.4;" xml:space="preserve">
<style type="text/css">
	.st0{fill:#E3B94B;}
	.st1{fill:#FFFFFF;}
	.st2{fill:#8ABB66;}
	.st3{fill:#C97234;}
</style>
<g id="XMLID_151_">
	<path id="XMLID_262_" class="st1" d="M234,226.3l-48.3-26c-14.9,5-30.7,7.6-46.8,7.6c-67.4,0-122.3-44.4-122.3-98.9
		C16.6,54.4,71.4,10,138.9,10s122.3,44.4,122.3,98.9c0,23.3-10.2,45.8-28.8,63.7L234,226.3z M186.6,188.5l36,19.3l-1.2-39.8l1.8-1.7
		c17.5-16,27.1-36.4,27.1-57.4c0-48.6-50-88.1-111.5-88.1S27.4,60.4,27.4,108.9s50,88.1,111.5,88.1c15.7,0,31-2.6,45.5-7.7
		L186.6,188.5z"/>
</g>
<path class="st1" d="M104.4,101h-5.9V81.4H75.3V101h-5.9V57.9h5.9v19.3h23.3V57.9h5.9V101z"/>
<path class="st1" d="M150.5,101H146c-0.5,0-0.9-0.1-1.3-0.4c-0.3-0.3-0.6-0.6-0.7-1l-4-10.4h-19.4l-4,10.4c-0.1,0.4-0.4,0.7-0.7,1
	c-0.3,0.3-0.8,0.4-1.3,0.4h-4.5l17.3-43.2h5.9L150.5,101z M122.2,85h16.1l-6.8-17.6c-0.4-1.1-0.9-2.4-1.3-4.1
	c-0.2,0.8-0.4,1.6-0.6,2.3c-0.2,0.7-0.4,1.3-0.6,1.8L122.2,85z"/>
<path class="st1" d="M162,162.6h-5.9V143h-23.3v19.6H127v-43.2h5.9v19.3h23.3v-19.3h5.9V162.6z"/>
<path class="st1" d="M208.1,162.6h-4.5c-0.5,0-0.9-0.1-1.3-0.4c-0.3-0.3-0.6-0.6-0.7-1l-4-10.4h-19.4l-4,10.4
	c-0.1,0.4-0.4,0.7-0.7,1c-0.3,0.3-0.8,0.4-1.3,0.4h-4.5l17.3-43.2h5.9L208.1,162.6z M179.8,146.6h16.1l-6.8-17.6
	c-0.4-1.1-0.9-2.4-1.3-4.1c-0.2,0.8-0.4,1.6-0.6,2.3c-0.2,0.7-0.4,1.3-0.6,1.8L179.8,146.6z"/>
</svg>
