<?xml version="1.0" encoding="utf-8"?>
<!-- Generator: Adobe Illustrator 22.0.1, SVG Export Plug-In . SVG Version: 6.00 Build 0)  -->
<svg version="1.1" id="Layer_1" xmlns="http://www.w3.org/2000/svg" xmlns:xlink="http://www.w3.org/1999/xlink" x="0px" y="0px"
	 viewBox="0 0 295 106" style="enable-background:new 0 0 295 106;" xml:space="preserve">
<style type="text/css">
	.st0{fill:#E3B94B;}
	.st1{fill:#C97134;}
</style>
<path class="st0" d="M27.7,71.5"/>
<path class="st0" d="M26.5,76.2"/>
<path class="st0" d="M161.6,59.4c0.9-1.2,1.8-2.5,2.7-3.7C163.2,56.9,162.3,58.1,161.6,59.4z"/>
<path class="st0" d="M231.8,45c-4.6,7.9-12.4,15.9-17.7,20c2.6-5,4.4-10.4,4.4-14.4c0-3.6-1.7-6.4-4.4-7.6c-0.4-2.4-2.6-3.3-5-3.3
	c-6.9,0-15,8.3-18.6,17.4c-4.6,5.2-10.3,10.1-16.8,11.9c3.2-12,12-27.3,19.4-41.4c-0.2-1.8-3.5-5.2-6.9-5.2
	c-3.3,0-18,18.1-26.6,30.4c4.1-9.2,10.8-22.2,10.8-25.3c0-3.3-4-5.4-7.4-5.4c-5.1,10.9-9,36.8-15.9,45.8c-5.5,3.5-11.9,3.9-17,3.1
	c-1.5-1.4-2-3.8-2-5.2v-4.7c0.7,1.5,2.6,3.2,4.6,3.2c6,0,15.6-9.5,15.6-16.7c0-1.7-1.2-3.1-2.6-4c-0.4-2-1.7-4.2-6.6-4.2
	c-7.2,0-16.1,9.1-19.3,18c-5,5.9-11.2,11.4-17.9,12.7l-1.2-4.4c7.3-0.4,18.3-13.5,17.4-18.9c-0.5-2.8-2.2-3.9-4-4.3
	c-0.5-1.5-1.6-2.9-4.2-2.9c-2.9,0-6.3,3-9.4,6.8l-0.4-0.3c3-3.8,11.1-14.9,11.1-18.3c0-2.6-3.1-5-7.3-5C102.6,25.9,97.8,35.2,93,45
	c0,0,0,0,0,0c-4.6,6.6-14.2,20.5-24.4,24.7c3.2-8,9.9-20.4,13.3-24.9c0.1-2.6-6.3-5.9-8.5-2.8l-1.9,2.9c-0.3-2.5-2.6-5.1-7.2-5.1
	c-7.3,0-19.7,12.9-19.7,24.8c0,2.6,0.7,4.6,2.2,5.8c0.2,3.4,2,8.6,6.2,8.6c2.5,0,5.9-3.4,9.2-8c0.2,0.2,0.5,0.4,0.7,0.6
	c0.3,3,2.4,7.4,5.9,7.4c3.7,0,9.4-6,14.7-13c-1.3,3.3-2.2,5.9-2.2,7.1c0,3.2,2.7,5.7,6,5.7l5.8-13.8c0.4,0.4,0.9,0.7,1.4,0.9
	c1,8.4,5.9,12.6,9.5,12.6c3.7,0,8.9-3.8,14.8-11c0.1,1.7,0.3,3.3,0.9,4.3c5.2,7.7,10,7.2,11.5,7.2c26.4-0.2,23.9-9.1,30.4-19.4
	c0.8-1.2,1.6-2.5,2.7-3.7c0,0,0.1-0.1,0.1-0.1c5.4-7.4,10.3-15,13.5-18.6c-5.3,10.1-12.6,23.5-12,29.5c0.2,2.7,1.5,4.2,3.1,5
	c0.6,3.1,2.6,7.4,5.5,7.3c3.4-0.1,8.9-5.3,14.2-11.7c0.3,3.9,2.1,6.2,5,6.8c0.2,2.6,1.4,4.9,5.5,4.9c3.5,0,7.3-2.9,10.6-7.1
	c0.9,0.5,1.7,0.8,2.5,0.8c7.6,0,17.7-15.1,21.3-23.7C234.6,46.7,232.7,45.4,231.8,45z M143.2,44.8c-2.3,5.8-9.5,13.7-14.5,14.9
	C131.8,52.8,137.4,46.4,143.2,44.8z M50,69.1c1.4-7.2,8.8-21.4,19.1-23.3C67.3,50.9,59.9,65.5,50,69.1z M96.1,60.5
	c2.3-6,8.5-13.4,15.2-15.5C109.2,51.5,102.9,59.7,96.1,60.5z M195.9,72.4c0.9-8.5,4.1-15.6,7.8-20.6c-0.5,1.5-0.8,3.1-0.8,4.5
	c0,4.2,0.9,7.6,2.2,10.2C202.5,69.4,199.3,71.7,195.9,72.4z M208.8,60.4c-0.6-2.8-0.7-5.8-0.6-7.4c0.2-4.7,2.5-8.5,4.7-9.5
	C212.9,48.7,211.4,55,208.8,60.4z"/>
<path class="st1" d="M229.1,68.8c0,1.7-0.7,3-1.8,4c1.2-0.9,1.6-1.8,2.7-3.1c-0.2,0.1,0.2-0.1,0,0c2.6-6.5,6.5-14.9,9.9-21.5
	c2.6-0.1,4.9-0.2,6.4-0.4c2.4-0.3,4.6-5.2,3.5-6.1c-0.4-0.3-2.9-0.5-6.1-0.6c1.1-2.1,1.9-3.5,2.1-4c1-1.5-2-4.9-5.9-4.9
	c-1.6,2.3-3.5,5.4-5.4,8.8c-4,0.1-7.3,0.3-7.8,0.6c-1.9,1-0.1,5.8,2.1,5.9c0.7,0.1,1.4,0.2,2.1,0.2c-4.3,8.6-8,17.4-8,21
	c0,2.1,0.6,3.6,2.5,4.4c0.1,0.3,0.2,0.6,0.3,0.8c0.6-0.3,1.3-0.7,1.8-1.2C228.4,71.8,229.1,70.5,229.1,68.8z"/>
<path class="st0" d="M225.5,74C225.5,74,225.5,74,225.5,74c0.7-0.3,1.3-0.7,1.8-1.2C226.8,73.3,226.2,73.6,225.5,74z"/>
<path class="st0" d="M276,59.5h-0.3c-4.6,7.3-13.4,11.5-19.4,11.5c-0.7,0-1.3-0.1-1.9-0.2c-0.1-3,0.6-6.4,1.9-9.6
	c0.7,1.5,2.6,3.2,4.6,3.2c5.9,0,15.6-9.5,15.6-16.8c0-1.6-1.2-3.1-2.6-4c-0.4-2-1.7-4.2-6.6-4.2c-6.2,0-13.7,6.8-17.7,14.4
	c-5.5,6.3-12.8,13.2-19.6,15.9c-1.1,1.3-1.5,2.1-2.7,3.1c-0.5,0.5-1.1,0.9-1.8,1.2c0.9,2.5,2.6,4.9,5.1,4.8
	c3.7-0.1,10.5-5.9,16.5-13c0.4,1.6,1.2,2.8,2.2,3.7c0.5,6.4,6,9.2,10,9.2c9.4,0,18.9-12.9,18.9-16.3C278.2,61,277.3,60,276,59.5z
	 M271.4,44.8c-2.3,5.8-9.5,13.7-14.5,14.9C260.2,51.8,259.7,49.5,271.4,44.8z"/>
<g>
	<g>
		<path class="st1" d="M25.8,91c-0.1-0.2-1-0.2-2.8,0.1c-1.8,0.3-3-0.3-5.3-2.6c-1.1-1.1-1.8-2.6-1.8-4.3c0-0.8,0.2-1.7,0.6-2.4
			c0.4-0.8,0.8-1.5,1.6-2c0.8-0.5,1.8-0.3,2.7,0c0.9,0.3,1.6,0.7,2.8,1.4c0.9,0.5,1.5,0.7,2.2,1c0.7,0.3,1.4,0.6,2.1,0.9
			c1.4,0.6,2.8,1.2,4.3,1.8c5.9,2.4,12.3,4.9,19.5,6.8c1.8,0.5,3.7,0.9,5.6,1.2c1,0.2,2,0.3,3.1,0.4c1,0,2,0.1,2.9,0.1
			c3.9,0.1,7.7,0.2,11.7,0.2C90.9,94,107.8,94,124.7,94c33.8,0,67.8-0.2,93.6-0.4c25.8-0.2,43.5-0.3,44.8-0.3c5.2-0.1,9.2-3,9.2-6.5
			c0-3.5-4.3-6.3-9.5-6.2c-1.3,0-19,0.6-44.8,1.3c-25.8,0.9-59.8,2-93.6,3.1c-16.9,0.6-33.7,1.1-49.5,1.7c-3.9,0.1-7.8,0.2-11.5,0.3
			c-0.9,0-1.8,0-2.7,0c-0.8-0.1-1.6-0.1-2.5-0.2c-1.7-0.2-3.4-0.5-5.1-0.9c-6.8-1.5-13.3-3.6-19.2-5.6c-1.5-0.5-2.9-1-4.3-1.5
			c-0.7-0.3-1.4-0.5-2.1-0.8c-0.7-0.3-1.4-0.5-1.8-0.7c-1.3-0.6-3.2-1.5-4.8-1.8c-1.7-0.4-3.4-0.2-4.8,0.7c-1.3,0.9-2.1,2.3-2.7,3.7
			c-0.6,1.4-0.8,2.8-0.7,4.2c0.1,2.8,1.7,5.1,3.3,6.4c3.4,2.6,6.5,2.2,8.4,1.5C26.3,91.2,25.8,91,25.8,91z"/>
	</g>
</g>
<path class="st0" d="M86.7,22.6c-7.5,5.3-15,6.7-24.8,7c-1.9,0.1-4,0-6-0.1c-7.7,14.4-14.3,22.3-22.2,45.3L30,80.2l0.6,3.4
	c0.1,1-0.2,2-0.8,2.7l-4,4.8l-1.1-6.1c-0.2-1,0-2,0.6-2.8l2.2-2.7L27.3,73c0.4-0.9,1.2-3.4,1.8-5.7c2.6-10.8,7-18.7,15.4-40.2
	c-8.4-0.6-18.9,0.4-28.9,2.5c4.2,1.2,8.6,2,12.5,2.7c0.9,0.9-0.1,4.1-2.1,4.9c-3,1.2-11.1,1.3-15.6-0.3c-2.2-0.9-3-3.4-2.8-5.9
	c-1.5-2.3-2.1-7.9,0.8-9.8c7.5-5.3,15-6.8,24.8-7c5.7-0.2,12.5,0.7,16.3,1.9c0.2,0.1,0.5,0.2,0.7,0.3c0.2,0.1,0.5,0.2,0.9,0.2
	c8.3,0.5,18.7-0.5,28.5-2.6c-4.2-1.2-8.6-2-12.5-2.7c-0.9-0.9,0.1-4.1,2.1-4.9c3-1.2,11.1-1.3,15.6,0.3c2.2,0.9,3,3.4,2.8,5.9
	C89,15.1,89.6,20.6,86.7,22.6z"/>
<path class="st1" d="M222.8,68.2c0,0-0.6,6.7,6.6,10.5s17.8-12.8,17.8-12.8s-15.6,15.8-16.1,3.2c-0.1-2.9,5.3-13.8,5.3-13.8
	L222.8,68.2z"/>
</svg>
