<?xml version="1.0" encoding="utf-8"?>
<!-- Generator: Adobe Illustrator 22.0.1, SVG Export Plug-In . SVG Version: 6.00 Build 0)  -->
<svg version="1.1" id="Layer_1" xmlns="http://www.w3.org/2000/svg" xmlns:xlink="http://www.w3.org/1999/xlink" x="0px" y="0px"
	 viewBox="0 0 278.1 240.4" style="enable-background:new 0 0 278.1 240.4;" xml:space="preserve">
<style type="text/css">
	.st0{fill:#E3B94B;}
	.st1{fill:#FFFFFF;}
	.st2{fill:#8ABB66;}
	.st3{fill:#C97234;}
</style>
<path id="User_1_" class="st1" d="M169.8,184c4.1,2.9,3.3,9.1-1.5,10.7c-14.3,5-40.7,12.7-66.5,12.7c-25.7,0-53.1-7.1-68.2-11.7
	c-4.9-1.5-5.8-8-1.6-10.9l42.8-29.3v-13.1c-4-4.5-7.2-9.9-9.5-15.9c-3.5-0.1-7.3-5.5-8.8-12.8c-1.6-7.7-0.1-14.7,3.5-15.4
	c0.2-0.1,0.5-0.1,0.9-0.1c1.6-27.6,19.6-49.4,41.6-49.4c22,0,39.9,21.8,41.5,49.5c0.4-0.1,0.8-0.1,1.2,0c3.6,0.7,5.2,7.7,3.6,15.4
	c-1.6,7.6-5.6,13.1-9.1,12.8c-2.6,6.6-6.3,12.6-10.7,17.3v11.6L169.8,184z"/>
<path id="feed_2_" class="st1" d="M189.4,158l-11.2-11.2c20.9-20.9,20.9-55,0-76l11.2-11.2C216.5,86.8,216.5,130.9,189.4,158z
	 M161.5,135.5l-6-6c11.3-11.3,11.3-29.8,0-41.1l6-6C176.2,96.9,176.2,120.8,161.5,135.5z M217.5,31.7l-11.2,11.2
	c36.4,36.4,36.4,95.7,0,132.1l11.2,11.2C260.1,143.5,260.1,74.2,217.5,31.7z"/>
</svg>
