<?xml version="1.0" encoding="utf-8"?>
<!-- Generator: Adobe Illustrator 22.0.1, SVG Export Plug-In . SVG Version: 6.00 Build 0)  -->
<svg version="1.1" id="Layer_1" xmlns="http://www.w3.org/2000/svg" xmlns:xlink="http://www.w3.org/1999/xlink" x="0px" y="0px"
	 viewBox="0 0 278.1 240.4" style="enable-background:new 0 0 278.1 240.4;" xml:space="preserve">
<style type="text/css">
	.st0{fill:#E3B94B;}
	.st1{fill:#FFFFFF;}
	.st2{fill:#8ABB66;}
	.st3{fill:#C97234;}
</style>
<g id="XMLID_42_">
	<g>
		<g id="XMLID_16_">
			<path id="XMLID_17_" d="M224.4,96.1c1.9,7.1,2.9,14.6,2.9,22.3c0,48.6-39.5,88.1-88.1,88.1c-48.6,0-88.1-39.5-88.1-88.1
				s39.5-88.1,88.1-88.1c23.3,0,44.5,9.1,60.3,23.9l6-6c-17.3-16.4-40.7-26.4-66.3-26.4c-53.3,0-96.6,43.4-96.6,96.6
				S85.9,215,139.2,215s96.6-43.4,96.6-96.6c0-10.2-1.6-20-4.5-29.2L224.4,96.1z"/>
		</g>
	</g>
</g>
</svg>
