<?xml version="1.0" encoding="utf-8"?>
<!-- Generator: Adobe Illustrator 22.0.1, SVG Export Plug-In . SVG Version: 6.00 Build 0)  -->
<svg version="1.1" id="Layer_1" xmlns="http://www.w3.org/2000/svg" xmlns:xlink="http://www.w3.org/1999/xlink" x="0px" y="0px"
	 viewBox="0 0 278.1 240.4" style="enable-background:new 0 0 278.1 240.4;" xml:space="preserve">
<style type="text/css">
	.st0{fill:#E3B94B;}
	.st1{fill:#FFFFFF;}
	.st2{fill:#8ABB66;}
	.st3{fill:#C97234;}
</style>
<path id="icon_13_" class="st1" d="M231.6,63.3c-0.8-6.1-1.7-12.7-2.2-17.3l6.6-16.7L92.5,12L17.5,169.7l19.6,36.7L175.2,233
	l66.4-170.5L231.6,63.3z M221.3,38.1l-59.8,152.4L45.7,168.5l68.1-143.3L221.3,38.1z M98.7,23.3l9.7,1.2l-67.9,143l-9.4-1.8
	L98.7,23.3z M44,197l-10.8-20.3l130.1,24.8l4.6,19.4L44,197z M171.5,213.8l-3-12.6l56.9-145c0.7,4.9,1.3,10.2,1.9,14.3L171.5,213.8z
	"/>
<polygon class="st1" points="129.6,130.3 115.2,125.7 137.2,55.9 151.9,59 "/>
<polygon class="st1" points="157.4,87.9 113.9,76.6 117.8,66.3 161.7,76.6 "/>
</svg>
